<?xml version="1.0" standalone="no"?>
<!DOCTYPE svg PUBLIC "-//W3C//DTD SVG 20010904//EN"
 "http://www.w3.org/TR/2001/REC-SVG-20010904/DTD/svg10.dtd">
<svg version="1.0" xmlns="http://www.w3.org/2000/svg"
 width="500.000000pt" height="500.000000pt" viewBox="0 0 500.000000 500.000000"
 preserveAspectRatio="xMidYMid meet">
<metadata>
Created by potrace 1.11, written by Peter Selinger 2001-2013
</metadata>
<g transform="translate(0.000000,500.000000) scale(0.100000,-0.100000)"
fill="#000000" stroke="none">
<path d="M2329 4936 c-2 -2 -35 -7 -74 -10 -664 -60 -1307 -427 -1715 -977
-195 -263 -350 -598 -416 -899 -8 -36 -17 -74 -19 -85 -3 -10 -7 -35 -10 -55
-3 -20 -7 -47 -10 -60 -26 -136 -27 -571 -1 -696 2 -12 7 -39 11 -60 60 -382
216 -746 459 -1072 100 -134 340 -374 471 -473 323 -242 690 -401 1070 -464
22 -4 49 -9 60 -11 65 -11 152 -16 325 -19 207 -4 331 7 515 46 55 12 105 22
110 23 183 37 533 191 735 323 415 273 751 681 931 1131 31 77 96 270 103 307
2 11 10 43 16 70 19 82 39 204 47 285 15 146 7 535 -12 610 -2 8 -7 35 -10 60
-4 25 -13 74 -22 110 -8 36 -16 73 -18 83 -10 46 -61 202 -97 292 -185 466
-518 873 -938 1147 -202 132 -478 256 -695 313 -108 28 -115 29 -235 50 -47 8
-101 17 -120 20 -40 7 -455 17 -461 11z m1670 -1378 c11 -10 13 -10 7 0 -4 6
-2 12 3 12 6 0 11 -9 11 -19 0 -11 5 -23 10 -26 6 -4 8 -11 5 -16 -3 -5 2 -6
11 -2 12 4 15 3 10 -5 -4 -7 -2 -12 3 -12 6 0 10 -3 10 -7 -5 -29 2 -53 14
-47 6 4 9 4 5 0 -3 -4 -2 -21 2 -37 6 -19 5 -29 -2 -29 -7 0 -7 -4 1 -13 6 -8
8 -17 4 -20 -3 -4 0 -7 8 -7 11 0 11 -2 -1 -10 -13 -8 -13 -10 -1 -10 12 0 12
-3 3 -12 -16 -16 -15 -31 1 -22 8 5 8 2 -2 -9 -11 -14 -11 -17 0 -17 11 0 11
-2 -1 -10 -8 -5 -11 -12 -7 -16 4 -4 -1 -13 -11 -21 -9 -8 -12 -12 -5 -9 6 4
14 2 18 -4 3 -5 1 -10 -5 -10 -6 0 -8 -4 -5 -10 3 -5 0 -10 -7 -10 -9 0 -9 -3
2 -10 12 -7 12 -10 1 -10 -8 0 -11 -6 -7 -16 3 -8 2 -13 -3 -10 -5 3 -12 -1
-15 -10 -3 -9 -2 -12 5 -8 6 3 5 -3 -2 -14 -7 -12 -18 -18 -24 -14 -5 3 -4 -2
4 -11 12 -15 11 -17 -3 -17 -10 0 -14 -4 -11 -10 3 -5 -1 -20 -9 -32 -9 -12
-16 -18 -17 -13 0 6 -4 0 -10 -13 -5 -14 -13 -20 -20 -16 -7 4 -9 3 -5 -4 3
-6 -5 -22 -19 -36 -14 -14 -25 -22 -25 -18 0 4 -5 -1 -11 -11 -6 -9 -15 -14
-21 -11 -7 5 -9 2 -5 -9 4 -12 1 -15 -14 -12 -15 3 -19 0 -15 -11 3 -9 1 -12
-4 -9 -6 3 -10 2 -10 -3 0 -6 -7 -13 -16 -16 -12 -5 -14 -3 -8 7 5 7 -2 1 -15
-13 -13 -14 -20 -19 -17 -12 4 6 3 12 -3 12 -5 0 -11 -5 -13 -10 -2 -6 -16
-12 -31 -14 -14 -1 -35 -10 -45 -19 -10 -10 -22 -14 -25 -10 -4 3 -7 2 -7 -4
0 -5 -10 -9 -22 -8 -13 1 -27 -3 -31 -9 -6 -8 -10 -7 -14 2 -2 6 -9 12 -14 12
-6 0 -7 -4 -4 -10 6 -9 -8 -15 -29 -11 -37 7 -136 4 -137 -4 0 -5 -4 -1 -9 10
-8 18 -9 18 -9 2 -1 -10 -5 -16 -9 -13 -19 12 -62 15 -56 4 5 -7 1 -9 -9 -5
-9 3 -19 2 -22 -3 -4 -6 -1 -10 5 -10 6 0 3 -12 -7 -27 -10 -15 -13 -24 -6
-20 6 4 14 3 18 -3 3 -5 -1 -10 -10 -10 -9 0 -13 -5 -9 -11 3 -6 0 -15 -7 -20
-9 -6 -10 -9 -2 -9 7 0 10 -9 6 -22 -3 -13 -7 -35 -10 -50 -3 -17 -10 -25 -17
-21 -8 4 -7 2 1 -7 13 -15 6 -43 -9 -34 -7 5 -7 1 -1 -11 11 -20 6 -55 -8 -55
-5 0 -9 -5 -9 -11 0 -5 6 -7 13 -3 9 6 9 4 -1 -8 -7 -9 -11 -28 -8 -43 4 -21
2 -24 -8 -16 -9 8 -12 6 -11 -7 0 -9 4 -23 8 -29 4 -6 3 -14 -3 -18 -6 -4 -7
-11 -4 -17 5 -8 1 -9 -11 -4 -18 7 -18 6 -2 -12 16 -18 16 -20 2 -26 -13 -5
-14 -10 -4 -27 7 -15 8 -19 0 -15 -7 5 -10 -3 -7 -24 3 -25 1 -28 -11 -19 -11
10 -12 8 -4 -14 7 -18 7 -28 0 -33 -6 -3 -9 -17 -6 -31 3 -18 1 -23 -10 -19
-11 5 -11 2 -2 -16 9 -17 9 -23 0 -26 -6 -2 -11 -8 -11 -13 0 -6 4 -7 10 -4 6
3 7 -1 4 -9 -3 -9 -11 -16 -16 -16 -6 0 -4 -8 3 -17 11 -13 11 -15 1 -9 -10 6
-13 3 -10 -11 2 -11 -4 -28 -12 -38 -8 -11 -10 -16 -3 -12 6 4 14 3 18 -3 3
-5 -1 -10 -9 -10 -10 0 -13 -6 -10 -15 4 -9 0 -15 -7 -15 -11 0 -11 -3 1 -10
13 -9 13 -10 0 -10 -13 0 -13 -1 0 -10 13 -9 13 -10 0 -10 -13 0 -13 -1 0 -10
12 -8 12 -10 -3 -16 -15 -5 -15 -9 -5 -22 11 -13 11 -14 -1 -7 -11 6 -13 4 -8
-8 4 -10 1 -17 -6 -18 -9 0 -8 -2 1 -6 10 -4 10 -8 1 -19 -9 -11 -8 -14 2 -14
8 0 5 -6 -7 -15 -11 -8 -14 -15 -6 -15 6 0 12 -5 12 -11 0 -5 -3 -8 -7 -6 -5
3 -15 -2 -23 -11 -13 -14 -13 -15 1 -10 10 4 15 0 15 -12 0 -10 -4 -16 -8 -14
-5 3 -11 -2 -14 -11 -5 -11 -10 -13 -19 -5 -9 8 -15 8 -20 0 -3 -6 -12 -7 -18
-3 -9 5 -9 3 0 -8 9 -12 4 -14 -34 -13 -25 0 -51 -5 -58 -12 -9 -10 -15 -10
-25 -1 -10 9 -11 9 -6 0 3 -6 2 -14 -4 -18 -5 -3 -10 0 -10 7 -1 8 -5 7 -14
-5 -10 -12 -16 -15 -21 -7 -5 8 -13 6 -28 -7 -14 -13 -18 -14 -13 -3 4 8 1 7
-7 -3 -11 -13 -17 -15 -22 -6 -6 8 -11 7 -18 -6 -8 -14 -11 -15 -18 -4 -7 11
-9 11 -9 1 0 -7 -4 -10 -10 -7 -5 3 -10 0 -10 -7 0 -11 -2 -10 -9 0 -7 11 -9
10 -15 -3 -3 -10 -11 -13 -18 -8 -21 13 -37 12 -32 -2 4 -10 -1 -12 -15 -8
-12 3 -21 10 -21 15 0 5 5 6 12 2 7 -5 8 -3 2 7 -12 19 -14 39 -4 39 13 0 19
40 7 40 -7 0 -3 7 8 16 16 12 17 16 6 23 -12 8 -12 12 3 26 12 13 14 21 6 30
-8 9 -6 17 5 29 12 12 13 16 3 16 -10 0 -9 3 2 10 11 7 11 10 2 10 -7 0 -10 5
-7 10 4 6 10 8 15 5 10 -6 8 15 -3 33 -5 6 -4 12 1 12 6 0 13 7 16 16 4 10 2
13 -7 8 -8 -5 -7 -2 2 9 11 14 11 20 1 32 -10 12 -9 16 3 21 9 3 13 12 10 21
-4 11 -2 14 5 9 8 -4 10 -2 6 7 -3 8 0 18 6 22 8 5 7 14 -4 31 -14 21 -14 23
-1 18 11 -5 13 -2 8 12 -5 13 -3 15 8 9 11 -6 12 -5 2 5 -8 9 -9 17 -3 25 6 7
11 24 12 39 1 14 7 26 13 26 5 0 3 5 -5 10 -13 9 -13 10 0 10 13 0 13 1 0 10
-12 8 -12 10 5 10 17 0 17 2 5 10 -11 7 -11 10 -2 10 10 0 10 5 1 21 -6 12 -7
19 -1 15 5 -3 13 1 16 10 4 10 2 13 -7 8 -9 -5 -9 -4 0 6 6 7 9 19 6 28 -4 9
-2 13 4 9 6 -4 8 3 5 20 -3 15 -1 24 5 20 5 -3 10 0 10 8 0 8 -3 12 -7 10 -4
-2 -7 2 -7 10 0 8 4 12 8 10 3 -3 9 6 11 18 3 15 0 24 -8 24 -7 0 -10 -6 -7
-13 3 -8 -4 -11 -21 -10 -21 3 -24 1 -15 -10 9 -11 8 -14 -1 -14 -7 0 -10 -7
-6 -15 3 -8 2 -14 -2 -14 -4 1 -16 1 -27 0 -17 -1 -18 -3 -5 -11 8 -5 10 -10
4 -10 -6 0 -17 -11 -24 -25 -7 -14 -15 -23 -18 -20 -3 2 1 13 9 22 13 16 12
17 -3 4 -10 -7 -18 -19 -18 -27 0 -7 -5 -16 -12 -20 -7 -5 -8 -3 -3 5 6 10 3
11 -14 2 -11 -7 -21 -18 -21 -26 0 -8 -3 -14 -7 -14 -21 3 -26 -2 -13 -12 12
-9 11 -10 -7 -6 -15 3 -20 1 -17 -8 3 -7 0 -16 -7 -21 -8 -4 -10 -3 -5 4 11
18 -2 14 -23 -7 -11 -11 -16 -23 -13 -27 4 -4 -1 -4 -10 -1 -12 4 -21 -1 -29
-14 -6 -12 -17 -18 -25 -15 -7 3 -13 2 -13 -2 3 -20 -2 -32 -13 -30 -7 2 -12
-2 -11 -9 2 -7 -3 -10 -11 -7 -7 3 -16 -2 -19 -10 -4 -9 -12 -16 -19 -16 -9 0
-9 3 2 10 8 5 12 11 10 14 -8 7 -62 -43 -56 -53 3 -4 -7 -6 -22 -3 -15 3 -24
1 -20 -3 13 -14 -25 -35 -40 -22 -10 8 -12 7 -10 -4 2 -8 -3 -13 -9 -11 -7 1
-13 -3 -13 -9 0 -6 -6 -9 -14 -6 -8 3 -20 -1 -26 -9 -7 -8 -19 -14 -27 -14 -8
0 -11 -5 -7 -12 5 -8 2 -9 -9 -5 -10 3 -17 2 -17 -4 0 -6 -4 -8 -9 -5 -13 8
-62 -19 -53 -30 4 -4 -1 -2 -10 5 -15 11 -19 11 -24 -3 -3 -9 -10 -14 -14 -11
-5 3 -12 0 -16 -6 -4 -8 -9 -7 -15 2 -7 11 -9 10 -9 -5 0 -12 -5 -16 -15 -12
-8 3 -15 1 -15 -4 0 -5 -7 -7 -15 -4 -8 4 -15 1 -15 -5 0 -6 -7 -8 -16 -4 -9
3 -20 0 -25 -8 -5 -8 -9 -9 -9 -3 0 6 -7 11 -15 11 -8 0 -12 -4 -10 -8 3 -3
-4 -9 -15 -12 -11 -3 -18 -1 -14 4 9 14 -6 10 -23 -6 -8 -8 -20 -12 -26 -8
-17 11 -57 11 -51 1 3 -4 10 -5 16 -2 6 4 8 3 5 -3 -5 -9 -98 -8 -124 2 -7 2
-13 -1 -13 -7 0 -6 -6 -5 -17 3 -9 8 -14 9 -10 3 4 -7 0 -14 -8 -18 -8 -3 -14
-2 -14 2 3 18 -2 26 -9 15 -6 -10 -14 -9 -35 2 -15 8 -25 10 -22 6 2 -5 -7
-11 -21 -14 -17 -3 -28 1 -31 10 -5 12 -7 12 -14 1 -8 -11 -11 -11 -18 1 -5 8
-16 11 -25 8 -8 -3 -18 -1 -22 5 -5 7 -2 8 6 3 9 -5 11 -4 6 4 -6 9 -11 9 -22
0 -13 -11 -18 -6 -15 16 1 6 -6 1 -15 -10 -16 -20 -16 -20 -11 3 4 18 3 21 -8
12 -9 -8 -17 -7 -28 4 -8 8 -17 12 -21 9 -3 -4 -6 -1 -6 6 0 7 -4 10 -9 7 -4
-3 -19 3 -31 14 -12 11 -27 17 -33 13 -6 -3 -7 -1 -3 5 4 7 2 12 -4 12 -6 0
-8 5 -4 12 4 6 3 9 -2 5 -5 -3 -23 6 -39 20 -17 14 -23 22 -15 18 8 -3 6 0 -4
9 -10 8 -23 13 -27 10 -5 -3 -6 1 -3 9 3 8 1 18 -5 21 -6 4 -8 14 -5 24 4 10
2 13 -3 7 -9 -12 -28 -13 -38 -4 -3 4 -1 10 6 15 8 5 10 3 4 -6 -6 -9 -4 -11
5 -5 10 6 6 14 -16 33 -21 19 -24 24 -9 19 19 -7 19 -6 1 7 -10 8 -15 19 -11
25 3 6 1 11 -4 11 -6 0 -11 8 -11 17 0 9 -8 25 -18 36 -9 11 -12 17 -5 14 6
-4 14 -3 18 3 3 5 2 10 -4 10 -16 0 -17 64 -1 78 8 8 10 11 3 8 -6 -4 -14 -2
-18 4 -3 5 -3 10 2 10 4 0 8 11 8 25 0 14 -3 25 -6 25 -3 0 -6 6 -6 14 0 8 6
12 14 9 7 -3 13 -2 13 1 0 4 -10 11 -22 16 -18 7 -19 9 -5 9 13 1 16 5 9 17
-10 17 -4 74 8 74 4 0 7 11 6 25 -1 18 -5 24 -16 20 -10 -3 -10 -1 3 9 9 7 17
19 17 25 0 7 5 9 13 5 8 -5 8 -2 -2 9 -11 14 -11 17 0 17 11 0 11 2 -1 10 -13
9 -13 10 0 10 13 0 13 1 0 10 -13 8 -13 10 2 10 11 0 15 5 12 14 -3 8 -1 17 5
21 15 9 14 28 -1 20 -7 -4 -5 0 4 8 10 8 15 17 11 20 -3 4 -1 7 5 7 7 0 11 3
11 8 -5 27 2 52 13 46 8 -5 9 -2 4 11 -5 15 -4 16 9 5 14 -11 14 -10 6 13 -8
20 -7 26 1 24 7 -1 12 5 13 13 1 8 7 14 13 12 10 -2 10 3 1 19 -8 15 -8 19 0
15 6 -4 11 -2 11 4 0 6 4 9 9 6 5 -3 8 2 7 12 0 10 5 16 13 14 12 -3 12 0 1
12 -9 12 -9 16 -1 16 7 0 9 5 5 12 -4 6 -3 8 3 5 6 -4 22 9 37 27 14 19 32 41
41 49 11 12 12 17 2 20 -7 3 -5 6 5 6 9 1 20 6 24 13 4 7 3 8 -4 4 -7 -4 -12
-2 -12 5 0 6 8 9 20 6 11 -3 18 -2 16 2 -3 4 4 20 15 37 10 16 19 24 19 19 0
-6 -3 -15 -7 -20 -5 -6 3 1 18 15 14 14 23 30 21 37 -2 8 4 11 17 8 15 -3 18
0 14 12 -4 11 -2 14 5 9 11 -6 16 5 14 25 -1 4 6 6 16 5 9 0 16 4 15 11 -1 6
4 14 13 17 10 4 13 1 9 -7 -4 -6 1 -3 9 7 9 11 16 24 16 29 0 5 8 3 17 -4 11
-10 14 -10 9 -1 -4 7 -2 12 4 12 6 0 8 5 5 10 -4 6 -3 10 2 9 17 -4 43 14 36
25 -4 6 2 4 12 -4 15 -12 17 -12 10 -1 -6 11 -4 13 8 8 12 -4 14 -2 10 10 -4
10 -2 14 4 10 6 -4 16 0 23 8 10 12 16 13 28 3 10 -8 13 -8 9 -2 -4 7 1 18 10
25 12 10 14 10 9 2 -4 -7 -2 -13 3 -13 6 0 11 5 11 10 0 6 9 10 20 10 11 0 20
5 20 11 0 5 4 8 9 5 5 -3 12 1 15 9 6 16 26 16 38 0 5 -6 8 -5 8 4 0 8 6 11
16 7 8 -3 13 -2 10 3 -3 5 1 11 9 15 8 3 15 1 15 -4 0 -6 5 -10 11 -10 5 0 7
5 3 12 -5 7 -3 8 6 3 7 -4 16 -2 21 6 7 12 9 12 9 0 0 -11 4 -10 16 5 8 10 13
13 9 7 -4 -8 0 -13 9 -13 9 0 16 6 17 13 0 8 2 8 6 -2 5 -11 7 -11 14 0 8 12
11 11 19 -1 9 -13 10 -13 10 0 0 13 1 13 10 0 5 -8 10 -10 10 -4 0 17 30 12
31 -5 0 -14 1 -14 7 -1 7 16 92 23 92 8 0 -4 5 -8 11 -8 5 0 8 4 5 8 -3 5 1 9
9 9 8 0 15 -4 15 -9 0 -4 14 -8 30 -8 22 0 30 -5 30 -17 0 -15 2 -16 10 -3 7
11 10 11 10 2 0 -7 5 -10 10 -7 6 3 10 1 10 -4 0 -6 6 -10 13 -9 6 2 11 -2 10
-8 -1 -7 7 -10 20 -8 12 2 16 2 10 -2 -7 -3 -13 -10 -13 -15 0 -6 8 -5 20 1
12 6 19 7 18 1 -2 -5 6 -17 17 -26 11 -9 13 -13 5 -9 -13 7 -13 5 -2 -8 8 -10
20 -14 30 -11 15 6 15 4 4 -9 -11 -14 -10 -18 7 -27 13 -8 18 -17 14 -28 -4
-11 -3 -14 5 -9 8 5 10 1 5 -10 -5 -13 -3 -15 8 -9 11 7 11 5 -1 -10 -12 -15
-12 -17 -1 -10 11 6 13 3 9 -13 -4 -12 -1 -25 4 -29 7 -3 8 -1 4 5 -4 7 -2 12
3 12 6 0 11 -5 11 -12 0 -13 14 -2 16 13 3 22 5 23 14 9 8 -13 10 -13 10 2 0
9 5 20 12 24 7 5 9 2 4 -7 -4 -8 1 -4 10 9 9 12 23 22 31 22 8 0 11 5 7 12 -4
6 -3 8 3 5 6 -4 19 0 29 8 10 8 29 15 42 15 16 0 21 4 16 13 -4 6 -4 9 1 5 4
-4 15 -2 23 5 11 8 14 8 9 0 -4 -6 -3 -14 3 -18 5 -3 10 1 10 10 0 12 6 15 21
10 16 -6 20 -4 13 6 -6 12 -5 12 8 1 13 -10 17 -10 21 0 4 10 8 10 16 -2 10
-13 11 -13 11 0 0 13 1 13 10 0 9 -13 11 -13 20 0 9 13 10 13 10 0 0 -13 1
-13 10 0 7 11 12 12 18 4 4 -7 22 -10 40 -8 18 2 31 0 28 -4 -3 -5 1 -9 9 -9
8 0 15 7 16 16 1 9 5 5 9 -9 4 -14 9 -18 9 -10 1 13 2 13 12 0 8 -12 12 -12
16 -2 4 10 8 9 17 -4 7 -9 25 -16 39 -16 15 0 24 -4 21 -9 -3 -5 2 -6 10 -3 9
3 16 1 16 -5 0 -6 5 -11 11 -11 5 0 7 6 3 13 -5 8 -3 8 9 -2 9 -7 14 -17 11
-22 -3 -5 2 -6 11 -3 10 4 22 -1 30 -12 13 -18 14 -17 8 6 l-6 25 24 -25 c13
-14 33 -25 44 -24 11 0 31 -9 45 -20 18 -16 21 -16 11 -3 -12 15 -12 17 3 11
9 -3 16 -10 16 -15 0 -5 7 -9 15 -9 8 0 15 -5 15 -11 0 -8 5 -8 15 1 12 10 15
10 15 -3 0 -11 5 -14 17 -10 10 4 14 2 10 -4 -4 -6 2 -13 13 -16 13 -3 18 -1
13 6 -3 7 3 4 14 -6 11 -9 23 -14 26 -11 4 4 13 2 20 -4 8 -7 17 -9 20 -5 4 3
7 1 7 -5 0 -7 11 -12 25 -12 14 0 25 -5 25 -11 0 -8 4 -8 14 0 10 9 16 8 26
-4 7 -9 20 -13 28 -10 8 3 21 0 29 -6 16 -14 115 -21 107 -8 -3 5 6 5 20 -1
18 -6 26 -6 26 1 0 6 5 7 10 4 6 -3 10 -2 10 4 0 6 7 7 17 4 10 -4 14 -2 9 5
-3 6 3 16 14 22 12 6 19 17 17 23 -2 7 3 18 11 26 10 10 11 16 3 19 -8 3 -8 9
0 24 6 11 7 18 2 15 -5 -4 -10 0 -10 8 0 8 4 12 9 9 4 -3 8 0 8 5 0 6 -4 11
-10 11 -5 0 -10 7 -10 15 0 8 -5 15 -11 15 -8 0 -7 6 2 18 7 9 10 14 5 10 -8
-6 -16 -1 -51 30 -9 8 -16 9 -20 2 -3 -5 -12 -10 -18 -10 -8 0 -8 3 1 9 11 7
11 9 -2 14 -9 4 -22 4 -30 1 -8 -3 -16 3 -19 15 -3 14 -1 19 6 14 6 -4 8 0 4
10 -6 17 3 22 33 17 8 -1 12 1 8 5 -10 10 25 42 41 37 9 -4 12 -1 7 6 -4 7 -1
15 8 18 9 3 13 10 10 15 -3 5 0 10 5 10 6 1 17 2 24 3 6 1 11 10 11 19 -1 10
0 16 3 13 10 -10 45 15 39 29 -3 9 3 12 19 10 14 -1 22 2 19 6 -6 10 4 29 15
29 4 0 13 -6 20 -12z m-2844 -578 c-3 -5 -12 -10 -18 -10 -7 0 -6 4 3 10 19
12 23 12 15 0z m2557 -222 c-7 -7 -12 -8 -12 -2 0 6 3 14 7 17 3 4 9 5 12 2 2
-3 -1 -11 -7 -17z"/>
<path d="M1751 3229 c-7 -12 -15 -18 -19 -14 -3 3 0 10 8 15 8 6 10 10 4 10
-6 0 -19 -10 -28 -22 -14 -21 -15 -21 -10 -3 4 17 3 16 -7 -2 -7 -13 -20 -23
-29 -23 -19 0 -66 -50 -47 -51 6 0 1 -5 -13 -10 -20 -8 -22 -12 -10 -19 13 -8
12 -10 -3 -10 -11 0 -22 -12 -28 -30 -6 -16 -15 -28 -19 -25 -4 3 -11 -2 -14
-11 -4 -10 -2 -13 7 -9 6 4 4 0 -7 -9 -11 -9 -15 -20 -10 -28 4 -7 4 -10 -1
-6 -5 5 -13 -2 -20 -15 -8 -15 -8 -24 -1 -29 7 -5 3 -8 -8 -8 -12 0 -16 -5
-12 -16 4 -10 2 -13 -6 -8 -8 5 -9 2 -5 -9 4 -10 2 -17 -5 -17 -7 0 -7 -4 -1
-12 9 -13 -19 -83 -29 -73 -3 3 -5 -2 -5 -10 0 -8 5 -11 10 -8 6 4 3 -4 -6
-17 -11 -17 -13 -27 -6 -36 7 -8 6 -15 -2 -20 -8 -5 -10 -3 -4 7 7 12 5 12 -6
1 -12 -11 -12 -14 0 -21 7 -5 9 -10 4 -12 -6 -2 -13 -17 -17 -32 -5 -22 -4
-27 6 -22 7 4 5 0 -4 -8 -23 -18 -23 -27 -1 -27 15 0 14 -2 -3 -14 -18 -14
-18 -16 -2 -32 14 -14 20 -15 32 -4 13 10 16 10 16 -1 0 -11 2 -11 10 1 8 12
10 12 10 1 0 -11 3 -11 17 0 14 12 15 12 9 1 -7 -11 -4 -12 11 -4 11 6 30 12
44 14 13 2 29 6 34 9 6 4 20 5 33 4 12 -1 22 2 22 7 0 5 5 6 10 3 6 -3 10 -1
10 6 0 8 5 7 17 -2 9 -8 14 -9 10 -3 -6 11 19 29 36 26 4 -1 7 3 7 9 0 6 7 9
15 6 8 -4 17 -1 21 5 5 7 2 8 -6 3 -9 -6 -11 -4 -6 4 5 7 14 10 22 7 8 -3 14
1 14 9 0 8 6 14 13 13 6 -2 11 2 10 9 -2 8 4 10 14 6 12 -5 14 -3 8 7 -6 10
-4 12 8 7 9 -3 16 -3 16 1 -1 4 -1 16 0 27 1 15 3 17 10 6 7 -11 10 -9 15 7 4
11 14 23 22 26 9 3 12 11 8 18 -5 8 -2 9 10 5 14 -5 15 -3 6 13 -9 17 -8 19 7
13 16 -6 16 -5 4 10 -12 15 -12 17 2 12 8 -4 18 -1 23 6 5 8 3 10 -7 4 -12 -7
-12 -6 -1 7 7 9 11 22 10 29 -2 8 2 13 7 12 6 -1 10 15 8 38 -1 22 2 37 7 34
5 -3 12 0 16 6 4 8 3 9 -4 5 -8 -5 -12 0 -12 13 0 10 -3 27 -7 37 -5 13 -3 15
8 9 11 -7 11 -5 -1 10 -8 10 -10 16 -3 12 6 -4 15 -3 18 3 4 6 1 9 -7 8 -7 -2
-12 5 -12 15 1 9 -2 17 -7 17 -11 0 -7 23 6 32 6 5 3 8 -7 8 -12 0 -15 5 -11
17 4 10 2 14 -5 9 -10 -6 -29 29 -24 47 2 6 -22 11 -41 8 -5 -1 -5 4 -1 10 5
9 2 10 -11 5 -15 -5 -16 -4 -6 8 10 12 9 14 -3 12 -9 -1 -19 -5 -22 -9 -10
-10 -26 -9 -20 1 3 5 -1 9 -9 9 -8 0 -11 -5 -8 -11 4 -6 0 -5 -9 2 -13 10 -17
10 -21 0 -4 -10 -7 -10 -14 -1 -6 9 -12 7 -22 -8z m-333 -684 c-3 -3 -9 2 -12
12 -6 14 -5 15 5 6 7 -7 10 -15 7 -18z"/>
<path d="M2447 2983 c-10 -3 -14 -9 -10 -16 4 -8 2 -8 -9 1 -12 10 -17 10 -27
-1 -6 -8 -8 -17 -4 -20 3 -4 1 -7 -5 -7 -6 0 -9 -7 -5 -17 5 -12 3 -14 -8 -8
-11 7 -11 5 1 -10 8 -10 11 -16 5 -13 -5 3 -15 0 -22 -7 -10 -11 -10 -15 0
-18 7 -3 4 -6 -6 -6 -10 -1 -16 -5 -12 -10 3 -5 0 -13 -6 -16 -5 -4 -8 -13 -5
-21 3 -8 0 -11 -8 -8 -8 3 -17 0 -22 -7 -5 -8 -3 -10 7 -5 8 4 5 0 -5 -8 -11
-9 -16 -16 -11 -16 5 0 -1 -7 -13 -16 -14 -10 -21 -22 -17 -31 5 -14 3 -14
-12 -2 -11 9 -14 10 -9 2 4 -8 2 -13 -5 -13 -8 0 -7 -5 2 -17 13 -15 12 -15
-11 -3 -14 7 -22 9 -18 5 12 -12 -12 -47 -28 -41 -8 3 -13 0 -11 -7 1 -7 -6
-11 -15 -11 -10 1 -15 -2 -12 -7 3 -5 0 -9 -6 -9 -6 0 -9 -4 -6 -9 3 -5 -1
-12 -10 -15 -10 -4 -13 -2 -9 7 4 6 -2 1 -13 -12 -11 -13 -24 -21 -31 -17 -6
4 -11 1 -11 -9 0 -9 -4 -14 -9 -11 -5 3 -12 -1 -15 -10 -5 -14 -9 -14 -23 -3
-14 12 -16 12 -8 0 6 -11 4 -13 -8 -8 -12 4 -14 2 -10 -10 4 -11 2 -14 -8 -11
-8 3 -20 -2 -27 -11 -8 -9 -11 -10 -7 -3 5 10 1 10 -22 0 -15 -7 -30 -15 -33
-19 -3 -3 -16 -12 -29 -19 -18 -9 -22 -9 -16 0 5 8 3 11 -6 8 -8 -3 -13 -10
-12 -15 1 -5 -4 -10 -12 -10 -8 0 -12 4 -10 8 3 4 -4 5 -15 2 -11 -3 -17 -10
-13 -17 4 -7 1 -7 -7 1 -11 10 -16 9 -27 -5 -8 -9 -12 -11 -8 -4 3 6 1 12 -4
12 -6 0 -11 -5 -11 -11 0 -5 -4 -8 -9 -5 -5 4 -12 0 -14 -6 -3 -7 -6 -5 -6 6
-1 18 -3 17 -21 -4 -12 -13 -20 -18 -20 -10 0 7 -3 10 -6 7 -4 -3 -16 -1 -28
5 -18 10 -19 9 -9 -4 10 -12 10 -15 -2 -15 -8 0 -15 5 -15 11 0 5 -7 1 -15
-10 -13 -16 -16 -17 -25 -4 -9 13 -10 13 -10 0 0 -13 -2 -13 -9 -1 -8 12 -12
12 -25 2 -9 -8 -16 -9 -16 -4 0 5 -7 10 -15 10 -12 0 -12 -3 -3 -16 9 -11 6
-10 -9 2 -15 13 -23 15 -28 7 -6 -9 -10 -9 -16 1 -6 9 -9 10 -9 2 0 -6 -11
-10 -24 -9 -22 3 -23 1 -16 -25 6 -20 5 -29 -3 -29 -7 0 -6 -4 3 -10 13 -9 13
-10 0 -10 -11 -1 -10 -4 4 -15 17 -13 17 -15 3 -15 -18 0 -13 -28 7 -43 8 -6
7 -10 -2 -14 -9 -3 -7 -12 8 -33 12 -17 16 -31 11 -35 -14 -8 -2 -35 16 -35 8
0 12 -4 8 -9 -8 -13 88 -111 109 -111 11 0 15 -4 10 -12 -5 -8 -1 -8 12 2 10
8 16 11 12 6 -4 -5 -1 -15 7 -22 17 -17 29 -18 19 -1 -4 6 3 3 16 -8 13 -11
20 -14 16 -8 -5 9 -2 11 8 7 9 -3 16 -11 16 -16 0 -6 8 -4 17 3 15 12 16 12 8
-1 -7 -13 -6 -13 7 -2 14 11 18 10 27 -5 9 -16 10 -15 11 6 0 23 1 24 14 6 13
-18 13 -18 24 1 9 15 11 16 12 3 0 -15 30 -23 30 -8 0 9 20 6 38 -4 11 -8 16
-2 13 15 0 3 13 3 29 -2 22 -6 30 -5 35 8 5 13 8 14 14 3 7 -10 10 -10 16 -1
6 9 10 9 16 -1 7 -11 9 -10 9 3 0 9 5 20 12 24 6 4 8 3 4 -4 -4 -6 1 -10 13
-9 11 0 17 5 14 11 -3 5 5 7 20 4 18 -3 24 -1 20 8 -3 9 2 12 17 9 17 -3 20 0
16 12 -5 12 -3 13 6 6 16 -12 27 -11 56 5 13 8 20 18 15 25 -5 8 -2 8 9 -1 12
-10 17 -10 20 -1 2 7 15 13 29 14 15 1 24 8 23 18 -1 9 2 14 7 11 5 -3 9 0 9
6 0 6 5 8 10 5 6 -3 10 -1 10 5 0 6 5 8 10 5 6 -3 10 -1 10 6 0 8 4 8 16 -1 8
-8 14 -9 13 -4 -4 21 2 35 11 29 6 -3 10 -2 10 3 0 4 16 16 35 25 20 9 38 24
41 32 4 8 10 12 15 9 5 -3 9 2 9 10 0 8 5 18 12 22 7 5 8 3 3 -5 -5 -10 -2 -9
13 0 12 7 18 17 16 21 -3 4 -1 8 5 8 5 0 33 23 61 51 27 27 55 47 60 44 6 -4
10 -3 9 2 -3 20 2 34 11 28 6 -3 10 1 10 10 0 12 5 15 16 11 14 -5 15 -4 4 9
-9 11 -9 15 -1 15 7 0 9 5 5 13 -5 7 0 6 11 -3 11 -9 16 -10 11 -2 -4 6 -2 12
3 12 6 0 11 7 11 15 0 9 7 18 15 21 8 4 12 10 9 15 -3 5 -1 9 3 9 5 0 14 9 21
21 10 15 10 19 1 14 -8 -5 -10 -4 -5 3 4 7 14 12 23 12 13 0 13 3 3 16 -11 12
-11 15 1 12 8 -2 13 3 11 10 -1 7 5 15 13 18 13 5 13 9 3 22 -10 12 -10 14 0
8 7 -4 13 -2 14 6 0 7 2 18 2 23 2 17 17 36 25 31 4 -3 5 8 3 25 -4 25 -2 28
14 22 18 -7 18 -6 2 11 -19 19 -24 31 -9 21 5 -3 12 -1 16 5 3 5 1 10 -4 10
-6 0 -11 4 -11 10 0 5 7 7 16 3 15 -5 15 -3 -1 20 -17 27 -33 38 -19 15 4 -7
-4 -3 -18 10 -14 13 -35 24 -47 25 -11 1 -21 5 -21 9 0 4 -9 5 -21 3 -16 -3
-18 -1 -10 8 8 10 2 14 -27 15 -20 2 -39 8 -43 14 -4 6 -14 8 -22 5 -9 -3 -18
-1 -21 6 -3 8 -5 7 -5 -2 -1 -11 -5 -10 -17 5 -13 16 -15 16 -10 2 7 -22 2
-23 -18 -2 -12 12 -16 12 -16 2 0 -10 -3 -9 -10 2 -9 13 -11 13 -20 0 -8 -12
-11 -13 -19 -1 -7 11 -9 11 -14 0 -5 -12 -6 -12 -6 0 -1 11 -4 11 -18 0 -11
-10 -14 -10 -9 -1 4 6 6 11 4 11 -2 -1 -11 -3 -21 -6z m-297 -917 c0 -2 -8
-10 -17 -17 -16 -13 -17 -12 -4 4 13 16 21 21 21 13z"/>
<path d="M1449 2843 c-13 -16 -12 -17 4 -4 9 7 17 15 17 17 0 8 -8 3 -21 -13z"/>
</g>
</svg>
